<svg id="visual" viewBox="0 0 900 600" width="900" height="600" xmlns="http://www.w3.org/2000/svg" xmlns:xlink="http://www.w3.org/1999/xlink" version="1.1"><rect x="0" y="0" width="900" height="600" fill="#111827"></rect><path d="M0 220L18.8 227.8C37.7 235.7 75.3 251.3 112.8 228.3C150.3 205.3 187.7 143.7 225.2 138.2C262.7 132.7 300.3 183.3 337.8 186C375.3 188.7 412.7 143.3 450.2 126.3C487.7 109.3 525.3 120.7 562.8 127.7C600.3 134.7 637.7 137.3 675.2 139C712.7 140.7 750.3 141.3 787.8 134.3C825.3 127.3 862.7 112.7 881.3 105.3L900 98L900 601L881.3 601C862.7 601 825.3 601 787.8 601C750.3 601 712.7 601 675.2 601C637.7 601 600.3 601 562.8 601C525.3 601 487.7 601 450.2 601C412.7 601 375.3 601 337.8 601C300.3 601 262.7 601 225.2 601C187.7 601 150.3 601 112.8 601C75.3 601 37.7 601 18.8 601L0 601Z" fill="#3b82f6"></path><path d="M0 159L18.8 163.7C37.7 168.3 75.3 177.7 112.8 181.7C150.3 185.7 187.7 184.3 225.2 194.3C262.7 204.3 300.3 225.7 337.8 242C375.3 258.3 412.7 269.7 450.2 264C487.7 258.3 525.3 235.7 562.8 212.3C600.3 189 637.7 165 675.2 182.8C712.7 200.7 750.3 260.3 787.8 266.8C825.3 273.3 862.7 226.7 881.3 203.3L900 180L900 601L881.3 601C862.7 601 825.3 601 787.8 601C750.3 601 712.7 601 675.2 601C637.7 601 600.3 601 562.8 601C525.3 601 487.7 601 450.2 601C412.7 601 375.3 601 337.8 601C300.3 601 262.7 601 225.2 601C187.7 601 150.3 601 112.8 601C75.3 601 37.7 601 18.8 601L0 601Z" fill="#407bfa"></path><path d="M0 239L18.8 241C37.7 243 75.3 247 112.8 240C150.3 233 187.7 215 225.2 209.5C262.7 204 300.3 211 337.8 239.3C375.3 267.7 412.7 317.3 450.2 315.2C487.7 313 525.3 259 562.8 231.2C600.3 203.3 637.7 201.7 675.2 220.7C712.7 239.7 750.3 279.3 787.8 306.2C825.3 333 862.7 347 881.3 354L900 361L900 601L881.3 601C862.7 601 825.3 601 787.8 601C750.3 601 712.7 601 675.2 601C637.7 601 600.3 601 562.8 601C525.3 601 487.7 601 450.2 601C412.7 601 375.3 601 337.8 601C300.3 601 262.7 601 225.2 601C187.7 601 150.3 601 112.8 601C75.3 601 37.7 601 18.8 601L0 601Z" fill="#4a73fd"></path><path d="M0 295L18.8 314C37.7 333 75.3 371 112.8 377C150.3 383 187.7 357 225.2 355C262.7 353 300.3 375 337.8 386.8C375.3 398.7 412.7 400.3 450.2 393.8C487.7 387.3 525.3 372.7 562.8 364C600.3 355.3 637.7 352.7 675.2 335.3C712.7 318 750.3 286 787.8 277.7C825.3 269.3 862.7 284.7 881.3 292.3L900 300L900 601L881.3 601C862.7 601 825.3 601 787.8 601C750.3 601 712.7 601 675.2 601C637.7 601 600.3 601 562.8 601C525.3 601 487.7 601 450.2 601C412.7 601 375.3 601 337.8 601C300.3 601 262.7 601 225.2 601C187.7 601 150.3 601 112.8 601C75.3 601 37.7 601 18.8 601L0 601Z" fill="#566aff"></path><path d="M0 341L18.8 355.3C37.7 369.7 75.3 398.3 112.8 407.3C150.3 416.3 187.7 405.7 225.2 390.5C262.7 375.3 300.3 355.7 337.8 363.8C375.3 372 412.7 408 450.2 419C487.7 430 525.3 416 562.8 394.5C600.3 373 637.7 344 675.2 343.2C712.7 342.3 750.3 369.7 787.8 386.2C825.3 402.7 862.7 408.3 881.3 411.2L900 414L900 601L881.3 601C862.7 601 825.3 601 787.8 601C750.3 601 712.7 601 675.2 601C637.7 601 600.3 601 562.8 601C525.3 601 487.7 601 450.2 601C412.7 601 375.3 601 337.8 601C300.3 601 262.7 601 225.2 601C187.7 601 150.3 601 112.8 601C75.3 601 37.7 601 18.8 601L0 601Z" fill="#6460ff"></path><path d="M0 391L18.8 397.8C37.7 404.7 75.3 418.3 112.8 419.5C150.3 420.7 187.7 409.3 225.2 416.8C262.7 424.3 300.3 450.7 337.8 450.3C375.3 450 412.7 423 450.2 422.7C487.7 422.3 525.3 448.7 562.8 454.3C600.3 460 637.7 445 675.2 441.3C712.7 437.7 750.3 445.3 787.8 436.5C825.3 427.7 862.7 402.3 881.3 389.7L900 377L900 601L881.3 601C862.7 601 825.3 601 787.8 601C750.3 601 712.7 601 675.2 601C637.7 601 600.3 601 562.8 601C525.3 601 487.7 601 450.2 601C412.7 601 375.3 601 337.8 601C300.3 601 262.7 601 225.2 601C187.7 601 150.3 601 112.8 601C75.3 601 37.7 601 18.8 601L0 601Z" fill="#7453ff"></path><path d="M0 486L18.8 482.8C37.7 479.7 75.3 473.3 112.8 477.3C150.3 481.3 187.7 495.7 225.2 491.8C262.7 488 300.3 466 337.8 456.7C375.3 447.3 412.7 450.7 450.2 453.3C487.7 456 525.3 458 562.8 466C600.3 474 637.7 488 675.2 484.7C712.7 481.3 750.3 460.7 787.8 456.7C825.3 452.7 862.7 465.3 881.3 471.7L900 478L900 601L881.3 601C862.7 601 825.3 601 787.8 601C750.3 601 712.7 601 675.2 601C637.7 601 600.3 601 562.8 601C525.3 601 487.7 601 450.2 601C412.7 601 375.3 601 337.8 601C300.3 601 262.7 601 225.2 601C187.7 601 150.3 601 112.8 601C75.3 601 37.7 601 18.8 601L0 601Z" fill="#8542fe"></path><path d="M0 495L18.8 507.5C37.7 520 75.3 545 112.8 554.2C150.3 563.3 187.7 556.7 225.2 550.7C262.7 544.7 300.3 539.3 337.8 541.3C375.3 543.3 412.7 552.7 450.2 556.7C487.7 560.7 525.3 559.3 562.8 548.5C600.3 537.7 637.7 517.3 675.2 509.3C712.7 501.3 750.3 505.7 787.8 514.2C825.3 522.7 862.7 535.3 881.3 541.7L900 548L900 601L881.3 601C862.7 601 825.3 601 787.8 601C750.3 601 712.7 601 675.2 601C637.7 601 600.3 601 562.8 601C525.3 601 487.7 601 450.2 601C412.7 601 375.3 601 337.8 601C300.3 601 262.7 601 225.2 601C187.7 601 150.3 601 112.8 601C75.3 601 37.7 601 18.8 601L0 601Z" fill="#962afb"></path></svg>