<svg id="visual" viewBox="0 0 900 600" width="900" height="600" xmlns="http://www.w3.org/2000/svg" xmlns:xlink="http://www.w3.org/1999/xlink" version="1.1"><g stroke-width="1" stroke-linejoin="bevel"><path d="M512 312L524 434L692 333Z" fill="#c7eafc" stroke="#c7eafc"></path><path d="M524 434L716 427L692 333Z" fill="#e1f4fc" stroke="#e1f4fc"></path><path d="M900 318L712 182L692 333Z" fill="#9ad3ff" stroke="#9ad3ff"></path><path d="M692 333L571 142L512 312Z" fill="#a1d7fe" stroke="#a1d7fe"></path><path d="M712 182L571 142L692 333Z" fill="#9ad3ff" stroke="#9ad3ff"></path><path d="M524 434L570 600L716 427Z" fill="#afdffd" stroke="#afdffd"></path><path d="M570 600L707 600L716 427Z" fill="#d0edfb" stroke="#d0edfb"></path><path d="M512 312L362 485L524 434Z" fill="#9ad3ff" stroke="#9ad3ff"></path><path d="M524 434L362 485L570 600Z" fill="#d8f0fb" stroke="#d8f0fb"></path><path d="M333 293L362 485L512 312Z" fill="#a1d7fe" stroke="#a1d7fe"></path><path d="M350 161L333 293L512 312Z" fill="#bfe6fc" stroke="#bfe6fc"></path><path d="M716 427L900 318L692 333Z" fill="#bfe6fc" stroke="#bfe6fc"></path><path d="M900 426L900 318L716 427Z" fill="#afdffd" stroke="#afdffd"></path><path d="M900 600L900 426L716 427Z" fill="#a1d7fe" stroke="#a1d7fe"></path><path d="M571 142L350 161L512 312Z" fill="#d0edfb" stroke="#d0edfb"></path><path d="M173 450L343 600L362 485Z" fill="#eaf7fc" stroke="#eaf7fc"></path><path d="M362 485L343 600L570 600Z" fill="#bfe6fc" stroke="#bfe6fc"></path><path d="M900 318L900 160L712 182Z" fill="#d0edfb" stroke="#d0edfb"></path><path d="M722 0L526 0L571 142Z" fill="#b7e2fc" stroke="#b7e2fc"></path><path d="M722 0L571 142L712 182Z" fill="#a1d7fe" stroke="#a1d7fe"></path><path d="M571 142L526 0L350 161Z" fill="#bfe6fc" stroke="#bfe6fc"></path><path d="M707 600L900 600L716 427Z" fill="#bfe6fc" stroke="#bfe6fc"></path><path d="M900 160L722 0L712 182Z" fill="#eaf7fc" stroke="#eaf7fc"></path><path d="M155 184L181 303L333 293Z" fill="#d8f0fb" stroke="#d8f0fb"></path><path d="M333 293L173 450L362 485Z" fill="#e1f4fc" stroke="#e1f4fc"></path><path d="M155 184L333 293L350 161Z" fill="#afdffd" stroke="#afdffd"></path><path d="M526 0L376 0L350 161Z" fill="#eaf7fc" stroke="#eaf7fc"></path><path d="M181 303L173 450L333 293Z" fill="#a8dbfe" stroke="#a8dbfe"></path><path d="M900 160L900 0L722 0Z" fill="#9ad3ff" stroke="#9ad3ff"></path><path d="M150 0L155 184L350 161Z" fill="#d0edfb" stroke="#d0edfb"></path><path d="M181 303L0 438L173 450Z" fill="#a8dbfe" stroke="#a8dbfe"></path><path d="M0 438L149 600L173 450Z" fill="#b7e2fc" stroke="#b7e2fc"></path><path d="M173 450L149 600L343 600Z" fill="#bfe6fc" stroke="#bfe6fc"></path><path d="M376 0L150 0L350 161Z" fill="#a8dbfe" stroke="#a8dbfe"></path><path d="M155 184L0 301L181 303Z" fill="#c7eafc" stroke="#c7eafc"></path><path d="M0 118L0 301L155 184Z" fill="#9ad3ff" stroke="#9ad3ff"></path><path d="M0 301L0 438L181 303Z" fill="#a8dbfe" stroke="#a8dbfe"></path><path d="M0 438L0 600L149 600Z" fill="#9ad3ff" stroke="#9ad3ff"></path><path d="M150 0L0 118L155 184Z" fill="#a8dbfe" stroke="#a8dbfe"></path><path d="M150 0L0 0L0 118Z" fill="#d0edfb" stroke="#d0edfb"></path></g></svg>