<svg id="visual" viewBox="0 0 900 600" width="900" height="600" xmlns="http://www.w3.org/2000/svg" xmlns:xlink="http://www.w3.org/1999/xlink" version="1.1"><rect x="0" y="0" width="900" height="600" fill="#1f2937"></rect><defs><linearGradient id="grad1_0" x1="33.3%" y1="100%" x2="100%" y2="0%"><stop offset="20%" stop-color="#1f2937" stop-opacity="1"></stop><stop offset="80%" stop-color="#1f2937" stop-opacity="1"></stop></linearGradient></defs><defs><linearGradient id="grad2_0" x1="0%" y1="100%" x2="66.7%" y2="0%"><stop offset="20%" stop-color="#1f2937" stop-opacity="1"></stop><stop offset="80%" stop-color="#1f2937" stop-opacity="1"></stop></linearGradient></defs><g transform="translate(900, 600)"><path d="M-513.8 0C-482.5 -39.3 -451.2 -78.6 -430.8 -115.4C-410.4 -152.2 -401 -186.5 -392.3 -226.5C-383.7 -266.5 -375.8 -312.3 -355 -355C-334.1 -397.6 -300.2 -437.2 -256.9 -445C-213.6 -452.7 -160.9 -428.5 -116.5 -434.7C-72.1 -440.8 -36 -477.3 0 -513.8L0 0Z" fill="#9333ea"></path></g><g transform="translate(0, 0)"><path d="M513.8 0C475.6 35 437.5 70 429.8 115.2C422.2 160.3 445 215.6 427.8 247C410.7 278.4 353.6 286.1 323.1 323.1C292.7 360.2 288.9 426.7 256.9 445C224.8 463.2 164.5 433.2 117 436.6C69.5 440 34.7 476.9 0 513.8L0 0Z" fill="#9333ea"></path></g></svg>